<svg xmlns="http://www.w3.org/2000/svg" viewBox="0 0 24 24" fill="white">
  <path d="M18.5 9.5c-.6 0-1.1-.4-1.3-.9l-1.3-3.4c-.4-1-.3-2.1.2-3 .5-.9 1.4-1.6 2.5-1.8 1.1-.2 2.2.1 3.1.8.9.7 1.4 1.7 1.5 2.8.1 1.1-.2 2.2-.9 3.1-.7.9-1.7 1.4-2.8 1.5-.3 0-.7 0-1 .1 0 0-.6 0-.7.1-.2.1-.2.2-.2.4v1.2c0 .2.1.3.3.3h2.4c.4 0 .7.3.7.7s-.3.7-.7.7h-2.4c-1 0-1.7-.8-1.7-1.7V10c0-.8.6-1.5 1.4-1.6.2 0 .5 0 .7-.1.2 0 .5 0 .7-.1.7-.1 1.3-.4 1.7-.9.4-.5.6-1.2.5-1.9-.1-.7-.4-1.3-.9-1.7-.5-.4-1.2-.6-1.9-.5-.7.1-1.3.5-1.6 1.1-.3.6-.4 1.3-.1 1.9l1.3 3.4c.2.5.1 1.1-.2 1.6-.3.4-.8.7-1.4.7-.6 0-1.1-.3-1.4-.7-.3-.5-.4-1.1-.2-1.6l1.3-3.4c.4-1 .3-2.1-.2-3-.5-.9-1.4-1.6-2.5-1.8-1.1-.2-2.2.1-3.1.8-.9.7-1.4 1.7-1.5 2.8-.1 1.1.2 2.2.9 3.1.7.9 1.7 1.4 2.8 1.5.3 0 .7 0 1 .1 0 0 .6 0 .7.1.2.1.2.2.2.4v1.2c0 .2-.1.3-.3.3H6.5c-.4 0-.7.3-.7.7s.3.7.7.7h2.4c1 0 1.7-.8 1.7-1.7V10c0-.8-.6-1.5-1.4-1.6-.2 0-.5 0-.7-.1-.2 0-.5 0-.7-.1-.7-.1-1.3-.4-1.7-.9-.4-.5-.6-1.2-.5-1.9.1-.7.4-1.3.9-1.7.5-.4 1.2-.6 1.9-.5.7.1 1.3.5 1.6 1.1.3.6.4 1.3.1 1.9l-1.3 3.4c-.2.5-.1 1.1.2 1.6.3.4.8.7 1.4.7.6 0 1.1-.3 1.4-.7.3-.5.4-1.1.2-1.6L10.6 5c-.4-1-.3-2.1.2-3 .5-.9 1.4-1.6 2.5-1.8 1.1-.2 2.2.1 3.1.8.9.7 1.4 1.7 1.5 2.8.1 1.1-.2 2.2-.9 3.1-.7.9-1.7 1.4-2.8 1.5-.3 0-.7 0-1 .1 0 0-.6 0-.7.1-.2.1-.2.2-.2.4v1.2c0 .2.1.3.3.3h2.4c.4 0 .7.3.7.7s-.3.7-.7.7h-2.4c-1 0-1.7-.8-1.7-1.7V10c0-.8.6-1.5 1.4-1.6.2 0 .5 0 .7-.1.2 0 .5 0 .7-.1.7-.1 1.3-.4 1.7-.9.4-.5.6-1.2.5-1.9-.1-.7-.4-1.3-.9-1.7-.5-.4-1.2-.6-1.9-.5-.7.1-1.3.5-1.6 1.1-.3.6-.4 1.3-.1 1.9l1.3 3.4c.2.5.1 1.1-.2 1.6-.3.4-.8.7-1.4.7z"/>
  <path d="M20 12H4c-1.1 0-2 .9-2 2v7c0 1.1.9 2 2 2h16c1.1 0 2-.9 2-2v-7c0-1.1-.9-2-2-2zm0 9H4v-7h16v7z"/>
  <path d="M7 16c-.6 0-1 .4-1 1s.4 1 1 1 1-.4 1-1-.4-1-1-1zm5 0c-.6 0-1 .4-1 1s.4 1 1 1 1-.4 1-1-.4-1-1-1zm5 0c-.6 0-1 .4-1 1s.4 1 1 1 1-.4 1-1-.4-1-1-1z"/>
</svg>
